# xmcd
#
# Track frame offsets:
#	150
#	23630
#	39574
#	56628
#	80599
#	98656
#	123305
#	146973
#	165909
#
# Disc length: 2560 seconds
#
# Revision: 0
# Processed by: cddbd v1.5.2PL0 Copyright (c) Steve Scherf et al.
# Submitted via: EasyCDDAExtractor 9.0.2.1
#
DISCID=6e09fe09
DTITLE=MARIO MATTEOLI - HARD LUCK HITTIN'
DYEAR=2006
DGENRE=ALT COUNTRY
TTITLE0=COME AND BE WITH ME
TTITLE1=WHAT TO DO
TTITLE2=SUN KEEPS BEATIN' DOWN
TTITLE3=HARD LUCK HITTIN'
TTITLE4=JOLIE BLON
TTITLE5=HOPE IN NOTHING
TTITLE6=THINKING ABOUT NOTHING
TTITLE7=UNITED NATIONS
TTITLE8=HAPPY BIRTHDAY FROM WYOMING
EXTD=
EXTT0=
EXTT1=
EXTT2=
EXTT3=
EXTT4=
EXTT5=
EXTT6=
EXTT7=
EXTT8=
PLAYORDER=
